<?xml version="1.0" standalone="no"?>
<!DOCTYPE svg PUBLIC "-//W3C//DTD SVG 20010904//EN"
 "http://www.w3.org/TR/2001/REC-SVG-20010904/DTD/svg10.dtd">
<svg version="1.0" xmlns="http://www.w3.org/2000/svg"
 width="201.000000pt" height="201.000000pt" viewBox="0 0 201.000000 201.000000"
 preserveAspectRatio="xMidYMid meet">
<metadata>
Created by potrace 1.11, written by Peter Selinger 2001-2013
</metadata>
<g transform="translate(0.000000,201.000000) scale(0.100000,-0.100000)"
fill="#000000" stroke="none">
<path d="M875 2004 c-11 -3 -57 -12 -103 -21 -46 -9 -85 -20 -88 -25 -3 -4
-12 -8 -20 -8 -30 0 -187 -83 -262 -139 -394 -293 -516 -826 -289 -1266 41
-79 123 -189 188 -254 145 -143 378 -254 579 -276 131 -14 273 -6 311 18 42
26 54 95 24 141 -22 34 -38 38 -169 41 -210 5 -373 76 -516 225 -280 291 -280
735 0 1020 157 161 311 225 540 224 112 -1 134 -4 212 -31 322 -111 528 -409
514 -743 -3 -68 15 -107 57 -125 53 -22 108 -2 129 49 19 46 16 312 -5 398
-80 327 -302 584 -609 707 -67 27 -95 35 -193 56 -36 8 -272 14 -300 9z"/>
<path d="M1629 567 c-117 -44 -189 -134 -197 -248 -20 -280 320 -421 502 -207
116 135 72 354 -88 435 -61 31 -162 40 -217 20z"/>
</g>
</svg>
