<svg width="62px" height="63px" viewBox="0 0 62 63" version="1.1" xmlns="http://www.w3.org/2000/svg" xmlns:xlink="http://www.w3.org/1999/xlink">
    <path d="M35.692997,61.3701703 C34.162837,61.6015709 32.596097,61.7215907 31.000837,61.7215907 C13.935027,61.7215907 0.055087,47.9548 5.39125206e-05,30.9690733 C-0.054963,13.8494427 13.899377,-0.0392188977 31.100347,0.0146176697 C48.166467,0.0684594964 62.000527,13.8833815 61.999907,30.8691082 C61.999907,32.4568246 61.879627,34.0161558 61.647127,35.5390801 C61.373707,37.3313545 59.558037,38.4454711 57.814287,37.9212717 C57.795377,37.9157181 57.776157,37.9101645 57.757247,37.9043023 C56.414017,37.5059848 55.528657,36.2119929 55.659167,34.8226639 C55.718377,34.19418 55.751547,33.5582913 55.758677,32.9159233 C55.889807,20.442816 45.779157,10.067432 33.248027,9.83572288 C20.228957,9.5950663 9.626337,20.1472404 9.867517,33.1047462 C10.100017,45.5769278 20.524697,55.6403839 33.057687,55.5095655 C33.702797,55.5024692 34.342017,55.4694561 34.973487,55.4108346 C36.369107,55.2809417 37.669557,56.1618065 38.069767,57.4989932 C38.075657,57.5178138 38.080927,57.5366344 38.086817,57.555455 C38.613197,59.2909592 37.494097,61.0980433 35.692997,61.3701703" id="Fill-1" fill="#97AABD"></path>
    <path d="M53.2027027,61.7214981 C58.0612802,61.7214981 62,57.8014036 62,52.9658012 C62,48.1301988 58.0612802,44.2101043 53.2027027,44.2101043 C48.3441252,44.2101043 44.4054054,48.1301988 44.4054054,52.9658012 C44.4054054,57.8014036 48.3441252,61.7214981 53.2027027,61.7214981" id="Fill-4" fill="#C96542"></path>
</svg>